<svg id="Layer_1" data-name="Layer 1" xmlns="http://www.w3.org/2000/svg" viewBox="0 0 146.9 39.8209"><defs><style>.cls-1{fill:#a32424;isolation:isolate;}.cls-2{fill:#fff;}</style></defs><path class="cls-1" d="M73.7375,39.8209a7.9743,7.9743,0,0,1-5.3741-13.8672L89.7352,6.4729a7.9729,7.9729,0,0,1,11.2633.52q.216.237.4125.4908l6.2709,8.0977L123.428,1.9459a7.9738,7.9738,0,1,1,10.4393,12.0559l-22.1135,19.15a7.9725,7.9725,0,0,1-11.2459-.8067q-.1437-.1659-.2781-.34L94.0929,24.08,79.1071,37.74A7.947,7.947,0,0,1,73.7375,39.8209Z"/><path class="cls-2" d="M11.889,13.6674h4.1093v14.65H11.889V26.2152a5.7987,5.7987,0,0,1-4.8309,2.4783C3.0115,28.6935,0,25.5566,0,21.008s2.9487-7.7169,7.1522-7.7169a5.6189,5.6189,0,0,1,4.7368,2.3214Zm-.1255,7.34a3.8559,3.8559,0,0,0-3.8217-3.89H7.9365a3.8762,3.8762,0,0,0,.0313,7.7482A3.8633,3.8633,0,0,0,11.7635,21.0079Z"/><path class="cls-2" d="M34.9451,20.9765c0,4.7368-3.4192,7.717-7.1835,7.717a5.82,5.82,0,0,1-4.7055-2.1958v9.0029H18.9469V13.6674h4.1093v1.7882a5.8835,5.8835,0,0,1,4.7054-2.1646A7.3072,7.3072,0,0,1,34.9451,20.9765Zm-4.2035.0314a3.8239,3.8239,0,0,0-3.7643-3.89,3.8749,3.8749,0,0,0,0,7.7483,3.7965,3.7965,0,0,0,3.7644-3.8585Z"/><path class="cls-2" d="M53.0136,20.9765c0,4.7368-3.4193,7.717-7.1836,7.717a5.82,5.82,0,0,1-4.7054-2.1958v9.0029H37.0152V13.6674h4.1094v1.7882A5.8834,5.8834,0,0,1,45.83,13.291,7.3072,7.3072,0,0,1,53.0136,20.9765Zm-4.2035.0314a3.8239,3.8239,0,0,0-3.7643-3.89,3.8749,3.8749,0,0,0,0,7.7483A3.7965,3.7965,0,0,0,48.81,21.0079Z"/><path class="cls-2" d="M66.0943,5.7h4.1094V28.317H66.0943V26.4976a5.8617,5.8617,0,0,1-4.7053,2.1958c-3.7643,0-7.1836-3.0114-7.1836-7.7169s3.4193-7.6856,7.1836-7.6856a5.75,5.75,0,0,1,4.7053,2.1646Zm-.1254,15.2768a3.8618,3.8618,0,0,0-3.7957-3.8583,3.8227,3.8227,0,0,0-3.7958,3.8493l0,.009a3.7968,3.7968,0,1,0,7.5914,0Z"/><path class="cls-2" d="M83.8489,13.7616l-.9409,3.9211a4.2656,4.2656,0,0,0-2.1018-.5332c-2.1018,0-3.5447,1.9763-3.5447,6.1483V28.317H73.152v-14.65H77.23v3.1371c.8156-2.4468,2.4782-3.5135,4.2975-3.5135A5.2155,5.2155,0,0,1,83.8489,13.7616Z"/><path class="cls-2" d="M95.4242,13.6674h4.1094v14.65H95.4242V26.2152a5.7985,5.7985,0,0,1-4.8309,2.4783c-4.0465,0-7.058-3.1369-7.058-7.6855s2.9487-7.7169,7.1522-7.7169a5.6187,5.6187,0,0,1,4.7367,2.3214Zm-.1254,7.34a3.8558,3.8558,0,0,0-3.8218-3.89h-.0053a3.8762,3.8762,0,0,0,.0313,7.7482,3.8633,3.8633,0,0,0,3.7958-3.8585Z"/><path class="cls-2" d="M119.5785,13.6674h4.4544l-5.176,14.65h-3.5132l-3.0116-9.5049L109.415,28.317h-3.5135l-5.3328-14.65h4.4545l2.76,8.94,2.7918-8.94h3.4506l2.7918,8.94Z"/><path class="cls-2" d="M139.4347,20.2864v8.0305h-4.1094v-7.811c0-2.29-1.38-3.325-2.7918-3.325a3.1192,3.1192,0,0,0-3.2937,3.45v7.6855H125.13V13.6674H129.24v2.3843c.69-1.9137,2.98-2.7607,4.3917-2.7607C137.4585,13.291,139.4661,15.8947,139.4347,20.2864Z"/><path class="cls-2" d="M141.63,26.0585a2.5379,2.5379,0,0,1,2.6036-2.51,2.529,2.529,0,1,1,0,5.0505A2.544,2.544,0,0,1,141.63,26.0585Z"/></svg>