<svg width="524" height="88" viewBox="0 0 524 88" fill="none" xmlns="http://www.w3.org/2000/svg">
<path fill-rule="evenodd" clip-rule="evenodd" d="M4 3.61523V84.3845H20.4569V54.4998H49.4523V39.9614H20.4569V18.1537H64.3419V3.61523H4Z" fill="#1A1B23"/>
<path fill-rule="evenodd" clip-rule="evenodd" d="M504.122 3.61523L482.076 38.6788L460.09 3.61523H442.066L473.141 53.0718L453.037 84.3845H471.061L476.734 75.5677L489.87 53.6647V53.588L513.572 16.4478L521.804 3.61523H521.756H521.804H504.122Z" fill="#1A1B23"/>
<path fill-rule="evenodd" clip-rule="evenodd" d="M389.562 84.3845V3.61523H453.038V18.1537H406.018V39.9614H435.014V54.4998H406.018V84.3845H389.562Z" fill="#1A1B23"/>
<path fill-rule="evenodd" clip-rule="evenodd" d="M91.7699 3.61523V69.846H134.088V84.3845H75.313V3.61523H91.7699Z" fill="#1A1B23"/>
<path fill-rule="evenodd" clip-rule="evenodd" d="M329.219 18.1537H351.162C360.566 18.1537 362.133 26.2306 362.133 29.4614C362.133 32.6922 360.566 40.7691 351.162 40.7691H329.219V18.1537ZM379.373 84.3845L362.631 52.546C370.205 49.0536 377.022 41.9362 377.022 29.4614C377.022 10.0768 360.566 3.61523 350.378 3.61523H312.762V84.3845H328.435V55.3075H346.678L361.349 84.3845H379.373Z" fill="#1A1B23"/>
<path fill-rule="evenodd" clip-rule="evenodd" d="M176.35 86.0001C170.594 86.0001 165.175 84.9129 160.094 82.7426C155.011 80.5716 150.621 77.6049 146.922 73.8419C143.223 70.0812 140.289 65.622 138.122 60.4624C135.953 55.3053 134.871 49.817 134.871 44C134.871 38.183 135.953 32.6964 138.122 27.5376C140.289 22.3805 143.223 17.9212 146.922 14.1582C150.621 10.3968 155.011 7.43012 160.094 5.25743C164.994 3.16466 170.207 2.07904 175.734 2.00416L176.405 2C197.605 2 209.004 14.2661 217.94 28.4288L218.479 27.5814C227.244 13.9212 238.466 2.24063 258.84 2.00367L259.529 2C265.285 2 270.703 3.08715 275.785 5.25743C280.867 7.43012 285.257 10.3968 288.956 14.1582C292.656 17.9212 295.59 22.3805 297.757 27.5376C299.925 32.6964 301.008 38.183 301.008 44C301.008 49.817 299.925 55.3053 297.757 60.4624C295.59 65.622 292.656 70.0812 288.956 73.8419C285.257 77.6049 280.867 80.5716 275.785 82.7426C270.885 84.8354 265.672 85.921 260.145 85.9959L259.474 85.9984L259.473 86.0001C238.274 86.0001 226.875 73.734 217.939 59.5713L217.399 60.4187C208.634 74.0789 197.413 85.7594 177.038 85.9964L176.405 86.0001L176.404 85.9984L176.35 86.0001ZM176.406 17.3461H176.349C172.801 17.3461 169.5 18.0294 166.443 19.392C163.386 20.7562 160.743 22.6268 158.518 25.003C156.29 27.3817 154.536 30.1868 153.253 33.42C151.969 36.6556 151.328 40.182 151.328 44C151.328 47.7404 151.969 51.2482 153.253 54.521C154.536 57.7946 156.29 60.6207 158.518 62.9969C160.743 65.3748 163.386 67.2454 166.443 68.6079C169.354 69.9072 172.487 70.5874 175.844 70.6492L176.349 70.6538L176.405 70.6522C192.389 70.6538 200.732 58.2584 208.889 44.0014L208.154 42.7234C200.225 29.0094 191.91 17.3461 176.406 17.3461ZM259.473 17.3461C243.49 17.3461 235.147 29.7416 226.99 43.9985L227.725 45.2766C235.654 58.9905 243.969 70.6538 259.473 70.6538L259.474 70.6522L259.53 70.6538C263.078 70.6538 266.379 69.9721 269.436 68.6079C272.493 67.2454 275.136 65.3748 277.361 62.9969C279.589 60.6207 281.343 57.7946 282.626 54.521C283.91 51.2482 284.551 47.7404 284.551 44C284.551 40.182 283.91 36.6556 282.626 33.42C281.343 30.1868 279.589 27.3817 277.361 25.003C275.136 22.6268 272.493 20.7562 269.436 19.392C266.525 18.0943 263.392 17.4127 260.035 17.3507L259.473 17.3461Z" fill="#F26D07"/>
<path fill-rule="evenodd" clip-rule="evenodd" d="M176.35 85.9999C170.594 85.9999 165.175 84.9128 160.094 82.7425C155.011 80.5714 150.621 77.6048 146.922 73.8417C143.223 70.0811 140.289 65.6218 138.122 60.4623C135.953 55.3052 134.871 49.8169 134.871 43.9999C134.871 38.1829 151.328 40.1819 151.328 43.9999C151.328 47.7403 151.968 51.2481 153.253 54.5209C154.536 57.7945 156.29 60.6206 158.517 62.9968C160.743 65.3747 163.385 67.2453 166.442 68.6079C169.354 69.9071 172.487 70.5873 175.844 70.6491L176.349 70.6538L176.405 70.6521C192.046 70.6538 200.37 58.7842 208.364 44.9158L208.889 43.9993C211.815 49.1122 214.716 54.4645 217.938 59.5703L217.399 60.4177C208.635 74.0783 197.413 85.7593 177.038 85.9963L176.405 85.9999H176.35ZM275.785 5.25742C280.867 7.43012 285.257 10.3968 288.956 14.1582C292.656 17.9212 295.59 22.3805 297.757 27.5376C299.925 32.6964 301.007 38.183 301.007 44C301.007 49.817 284.551 47.7404 284.551 44C284.551 40.1821 283.91 36.6557 282.626 33.4201C281.343 30.1869 279.588 27.3817 277.361 25.0031C275.136 22.6269 272.493 20.7562 269.436 19.392C266.525 18.0944 263.392 17.4128 260.035 17.3508L259.473 17.3462C243.49 17.3462 235.147 29.7416 226.99 43.9986C224.064 38.8877 221.162 33.5354 217.94 28.4296L218.479 27.5822C227.244 13.9216 238.466 2.24063 258.84 2.00367L259.529 2C265.285 2 270.703 3.08715 275.785 5.25742Z" fill="url(#paint0_linear)"/>
<defs>
<linearGradient id="paint0_linear" x1="206.732" y1="-3.65419" x2="177.034" y2="70.9449" gradientUnits="userSpaceOnUse">
<stop stop-color="#1F1F1F" stop-opacity="0.01"/>
<stop offset="0.321614" stop-color="#1F1F1F" stop-opacity="0.01"/>
<stop offset="0.424049" stop-color="#1F1F1F" stop-opacity="0.5"/>
<stop offset="0.50015" stop-color="#1F1F1F" stop-opacity="0.6"/>
<stop offset="0.575662" stop-color="#1F1F1F" stop-opacity="0.5"/>
<stop offset="0.676362" stop-color="#181818" stop-opacity="0.01"/>
<stop offset="1" stop-color="#1F1F1F" stop-opacity="0.01"/>
</linearGradient>
</defs>
</svg>
